<svg width="32" height="32" viewBox="0 0 32 32" fill="none" xmlns="http://www.w3.org/2000/svg">
<circle cx="16" cy="16" r="16" fill="#F9CC00"/>
<path d="M11.8337 24.3334H9.33366C8.89163 24.3334 8.46771 24.1578 8.15515 23.8452C7.84259 23.5326 7.66699 23.1087 7.66699 22.6667V16.8334C7.66699 16.3913 7.84259 15.9674 8.15515 15.6548C8.46771 15.3423 8.89163 15.1667 9.33366 15.1667H11.8337M17.667 13.5V10.1667C17.667 9.50365 17.4036 8.86776 16.9348 8.39892C16.4659 7.93008 15.83 7.66669 15.167 7.66669L11.8337 15.1667V24.3334H21.2337C21.6356 24.3379 22.0256 24.197 22.3319 23.9367C22.6382 23.6764 22.8401 23.3141 22.9003 22.9167L24.0503 15.4167C24.0866 15.1778 24.0705 14.9339 24.0031 14.7019C23.9357 14.4699 23.8187 14.2553 23.6602 14.0729C23.5017 13.8906 23.3054 13.745 23.085 13.646C22.8645 13.5471 22.6252 13.4973 22.3837 13.5H17.667Z" stroke="white" stroke-width="2" stroke-linecap="round" stroke-linejoin="round"/>
</svg>
